# xmcd
#
# Track frame offsets: 
#        150
#        23645
#        41441
#        66760
#        82880
#        109185
#        119814
#        136780
#        158939
#        176538
#        191308
#
# Disc length: 2818 seconds
#
# Revision: 0
# Processed by: cddbd v1.5.2PL0 Copyright (c) Steve Scherf et al.
# Submitted via: ExactAudioCopyFreeDBPlugin 1.0
#
DISCID=880b000b
DTITLE=Ad Vanderveen - Denver Nevada
DYEAR=2018
DGENRE=Country
TTITLE0=Another Song
TTITLE1=Big Old Lonely Feeling
TTITLE2=Backroads Of Hope
TTITLE3=Castles
TTITLE4=Denver Nevada
TTITLE5=Ruminations
TTITLE6=Wooden Showes, Wooden Head, Wouldn't Listen
TTITLE7=Blackbird Singing A Blue Note
TTITLE8=In The Name Of Rock'n'Roll
TTITLE9=My Sweet, Crushed Angel
TTITLE10=Aftertought - Groveling Grandeur
EXTD=
EXTT0=
EXTT1=
EXTT2=
EXTT3=
EXTT4=
EXTT5=
EXTT6=
EXTT7=
EXTT8=
EXTT9=
EXTT10=
PLAYORDER=
